<svg width="12" height="12" viewBox="0 0 12 12" fill="none" xmlns="http://www.w3.org/2000/svg">
<path d="M11.3535 1.35355C11.5488 1.15829 11.5488 0.841708 11.3535 0.646446C11.1583 0.451184 10.8417 0.451185 10.6464 0.646447L11.3535 1.35355ZM0.646446 10.6464C0.451184 10.8417 0.451185 11.1583 0.646447 11.3536C0.841709 11.5488 1.15829 11.5488 1.35355 11.3536L0.646446 10.6464ZM1.35357 0.646447C1.15831 0.451185 0.84173 0.451184 0.646468 0.646446C0.451206 0.841708 0.451205 1.15829 0.646467 1.35355L1.35357 0.646447ZM10.6464 11.3536C10.8417 11.5488 11.1583 11.5488 11.3536 11.3536C11.5488 11.1583 11.5488 10.8417 11.3536 10.6464L10.6464 11.3536ZM10.6464 0.646447L0.646446 10.6464L1.35355 11.3536L11.3535 1.35355L10.6464 0.646447ZM0.646467 1.35355L10.6464 11.3536L11.3536 10.6464L1.35357 0.646447L0.646467 1.35355Z" fill="#000"/>
</svg>
