<svg width="34" height="34" viewBox="0 0 34 34" fill="none" xmlns="http://www.w3.org/2000/svg">
<g clip-path="url(#clip0_458_2444)">
<path fill-rule="evenodd" clip-rule="evenodd" d="M27.1296 4.63223C24.1476 1.64667 20.1817 0.00175094 15.9566 0C7.25054 0 0.165043 7.0853 0.161541 15.7937C0.160374 18.5775 0.8876 21.295 2.26987 23.6903L0.0290527 31.875L8.40227 29.6785C10.7094 30.9371 13.3069 31.6003 15.9502 31.6011H15.9568C24.6619 31.6011 31.7482 24.5152 31.7515 15.8064C31.7533 11.5858 30.1119 7.61759 27.1296 4.63223ZM15.9566 28.9336H15.9512C13.5956 28.9326 11.2853 28.2996 9.26938 27.1037L8.7902 26.819L3.82141 28.1225L5.14765 23.278L4.8354 22.7814C3.52122 20.6911 2.82726 18.2752 2.82843 15.7947C2.83115 8.55648 8.72055 2.66766 15.9619 2.66766C19.4684 2.66883 22.7647 4.03613 25.2433 6.5176C27.7218 8.99908 29.086 12.2975 29.0848 15.8054C29.0817 23.0442 23.1927 28.9336 15.9566 28.9336ZM23.1577 19.1013C22.7631 18.9036 20.8227 17.9491 20.4608 17.8172C20.0994 17.6855 19.8359 17.62 19.5731 18.0149C19.3099 18.4098 18.5537 19.2989 18.3233 19.5622C18.093 19.8256 17.863 19.8586 17.4683 19.661C17.0735 19.4635 15.802 19.0466 14.2944 17.7021C13.1213 16.6556 12.3293 15.3632 12.0989 14.9683C11.8689 14.5729 12.097 14.3799 12.2721 14.1628C12.6993 13.6323 13.1271 13.0761 13.2586 12.8128C13.3903 12.5494 13.3244 12.3189 13.2255 12.1214C13.1271 11.9239 12.3378 9.98137 12.009 9.19091C11.6884 8.42166 11.3633 8.52555 11.1209 8.51349C10.8909 8.50201 10.6277 8.49968 10.3645 8.49968C10.1015 8.49968 9.67385 8.59831 9.31199 8.99364C8.95032 9.38877 7.93088 10.3434 7.93088 12.286C7.93088 14.2286 9.34506 16.1052 9.54233 16.3686C9.7396 16.632 12.3254 20.6184 16.2843 22.3277C17.2259 22.7347 17.9609 22.9773 18.5342 23.1592C19.4797 23.4596 20.3398 23.4172 21.02 23.3156C21.7783 23.2022 23.3548 22.3607 23.6839 21.439C24.0127 20.517 24.0127 19.7269 23.9139 19.5622C23.8155 19.3976 23.5522 19.2989 23.1577 19.1013Z" fill="#000"/>
</g>
<defs>
<clipPath id="clip0_458_2444">
<rect width="34" height="34" fill="#000"/>
</clipPath>
</defs>
</svg>
